HIERARCHY
ROOT Hips
{
	OFFSET -3.958830 18.904000 13.208200
	CHANNELS 6 Xposition Yposition Zposition Zrotation Yrotation Xrotation 
	JOINT LHipJoint
	{
		OFFSET 0.000000 0.000000 0.000000
		CHANNELS 3 Zrotation Yrotation Xrotation
		JOINT LeftUpLeg
		{
			OFFSET 1.800000 -1.400000 0.085000
			CHANNELS 3 Zrotation Yrotation Xrotation
			JOINT LeftLeg
			{
				OFFSET 2.215000 -6.000000 0.000000
				CHANNELS 3 Zrotation Yrotation Xrotation
				JOINT LeftFoot
				{
					OFFSET 2.500000 -6.900000 0.000000
					CHANNELS 3 Zrotation Yrotation Xrotation
					JOINT LeftToeBase
					{
						OFFSET 0.200000 -0.500000 1.950000
						CHANNELS 3 Zrotation Yrotation Xrotation
						End Site
						{
							OFFSET 0.000000 0.000000 0.000000
						}
					}
				}
			}
		}
	}
	JOINT RHipJoint
	{
		OFFSET 0.000000 0.000000 0.000000
		CHANNELS 3 Zrotation Yrotation Xrotation
		JOINT RightUpLeg
		{
			OFFSET -1.800000 -1.400000 0.085000
			CHANNELS 3 Zrotation Yrotation Xrotation
			JOINT RightLeg
			{
				OFFSET -2.215000 -6.000000 0.000000
				CHANNELS 3 Zrotation Yrotation Xrotation
				JOINT RightFoot
				{
					OFFSET -2.500000 -6.900000 0.000000
					CHANNELS 3 Zrotation Yrotation Xrotation
					JOINT RightToeBase
					{
						OFFSET -0.200000 -0.500000 1.950000
						CHANNELS 3 Zrotation Yrotation Xrotation
						End Site
						{
							OFFSET 0.000000 0.000000 0.000000
						}
					}
				}
			}
		}
	}
	JOINT LowerBack
	{
		OFFSET 0.000000 0.000000 0.000000
		CHANNELS 3 Zrotation Yrotation Xrotation
		JOINT Spine
		{
			OFFSET -0.087000 1.940000 -0.288900
			CHANNELS 3 Zrotation Yrotation Xrotation
			JOINT Spine1
			{
				OFFSET 0.000000 1.950000 0.060000
				CHANNELS 3 Zrotation Yrotation Xrotation
				JOINT Neck
				{
					OFFSET 0.000000 0.000000 0.000000
					CHANNELS 3 Zrotation Yrotation Xrotation
					JOINT Neck1
					{
						OFFSET 0.000000 1.600000 0.340000
						CHANNELS 3 Zrotation Yrotation Xrotation
						JOINT Head
						{
							OFFSET 0.000000 1.667000 -0.240000
							CHANNELS 3 Zrotation Yrotation Xrotation
							End Site
							{
								OFFSET 0.000000 0.000000 0.000000
							}
						}
					}
				}
				JOINT LeftShoulder
				{
					OFFSET 0.000000 0.000000 0.000000
					CHANNELS 3 Zrotation Yrotation Xrotation
					JOINT LeftArm
					{
						OFFSET 2.700000 1.550000 -0.730000
						CHANNELS 3 Zrotation Yrotation Xrotation
						JOINT LeftForeArm
						{
							OFFSET 5.450000 0.000000 0.000000
							CHANNELS 3 Zrotation Yrotation Xrotation
							JOINT LeftHand
							{
								OFFSET 3.450000 0.000000 0.000000
								CHANNELS 3 Zrotation Yrotation Xrotation
								JOINT LeftHandIndex1
								{
									OFFSET 0.750000 0.000000 0.000000
									CHANNELS 3 Zrotation Yrotation Xrotation
									End Site
									{
										OFFSET 0.000000 0.000000 0.000000
									}
								}
							}
						}
					}
				}
				JOINT RightShoulder
				{
					OFFSET 0.000000 0.000000 0.000000
					CHANNELS 3 Zrotation Yrotation Xrotation
					JOINT RightArm
					{
						OFFSET -2.700000 1.550000 -0.730000
						CHANNELS 3 Zrotation Yrotation Xrotation
						JOINT RightForeArm
						{
							OFFSET -5.450000 0.000000 0.000000
							CHANNELS 3 Zrotation Yrotation Xrotation
							JOINT RightHand
							{
								OFFSET -3.450000 0.000000 0.000000
								CHANNELS 3 Zrotation Yrotation Xrotation
								JOINT RightHandIndex1
								{
									OFFSET -0.750000 0.000000 0.000000
									CHANNELS 3 Zrotation Yrotation Xrotation
									End Site
									{
										OFFSET 0.000000 0.000000 0.000000
									}
								}
							}
						}
					}
				}
			}
		}
	}
}
MOTION
Frames: 4
Frame Time: 0.016667
-0.360920 16.993520 -4.161750 -4.289252 -3.872739 -2.451043 -15.671171 12.229036 3.954926 -0.610695 -6.536120 -40.275605 10.945909 5.770327 59.394131 0.259968 9.522010 0.986204 0.928700 0.810750 0.839530 18.247230 -7.859959 4.857479 4.137802 17.354613 -38.301739 -4.563195 -5.349335 64.523535 -1.790741 -8.695027 1.252738 0.490990 -0.263910 0.189100 -2.823233 -3.926582 -9.161129 5.868101 0.148618 44.651356 0.900691 2.812611 16.552926 1.451016 -4.097678 -13.925178 -10.002146 -0.635021 35.206042 -3.275020 0.919320 -35.553660 5.735633 -38.537986 -0.023787 2.411768 -32.515336 -15.878799 104.223864 -42.054232 -58.482440 -3.728929 2.261326 0.791900 -0.270090 0.465460 0.107160 -8.656925 46.632278 5.297654 4.798452 32.736790 -10.030517 -22.667364 19.055493 -5.047786 2.216575 -1.339225 -0.045970 0.363190 -0.230480 -0.298190 
-0.343960 16.913580 -4.185730 -4.308695 -4.938151 -2.740121 -15.662032 12.161709 3.998580 -0.074383 -6.549353 -40.664562 10.119286 6.650024 61.207586 0.346299 9.934001 0.857818 0.874580 0.739330 0.799860 18.268620 -7.830436 4.864620 4.635473 17.612204 -37.885657 -5.484510 -4.782154 65.014347 -1.792079 -8.719549 1.254714 0.447160 -0.255930 0.165670 -2.869754 -3.862060 -9.187636 6.568239 0.130873 46.426577 0.704935 3.217460 15.153674 1.495080 -5.076738 -14.117732 -11.701620 -0.720044 34.742727 -2.398660 0.158310 -35.844620 6.939268 -38.055213 -0.526514 5.810981 -30.424416 -17.578890 97.810245 -42.616083 -51.875247 -3.748605 2.305622 0.814330 -0.291920 0.447870 0.087200 -9.755176 47.247825 4.423327 2.673267 31.034403 -10.259717 -20.641329 19.951429 -4.331497 2.234889 -1.286768 -0.069150 0.372980 -0.196510 -0.299190 
-0.345810 16.765440 -4.225330 -4.013295 -3.831150 -3.137935 -15.621592 11.901575 4.253641 0.058226 -7.714330 -41.809896 9.606290 7.223082 64.611293 0.585972 10.534956 0.699668 0.829970 0.699810 0.750450 18.326858 -7.895477 4.715497 3.643340 17.040386 -38.182203 -5.045162 -5.552906 65.707769 -1.823917 -8.867167 1.225223 0.380420 -0.256420 0.158540 -3.019584 -3.531604 -9.241323 8.621999 -0.791840 48.760101 -0.088262 3.411377 12.385308 1.472872 -5.249545 -14.056879 -12.264411 -1.715742 34.797126 -0.811480 -1.211190 -36.111300 9.376735 -36.541571 -1.745065 12.207623 -28.284530 -18.881183 81.275307 -44.817934 -39.047873 -3.745880 2.490313 0.811020 -0.326860 0.462500 0.094510 -12.042050 45.677151 4.294716 0.707714 28.803713 -9.969207 -19.000511 21.330128 -3.656499 2.235637 -1.263046 -0.039130 0.361220 -0.196780 -0.258880 
-0.330440 16.650320 -4.228220 -3.834323 -4.356814 -4.129995 -15.600277 11.770419 4.459693 1.537556 -8.516999 -41.903007 7.101196 9.336840 67.724640 0.873196 11.250749 0.497752 0.758380 0.584670 0.745640 18.346158 -7.970291 4.543927 3.496068 16.332892 -37.441142 -5.331494 -5.990813 66.871915 -1.881873 -9.077263 1.170115 0.249470 -0.321330 0.178500 -3.085292 -3.383366 -9.319749 9.797795 -1.411466 51.685416 -1.155943 4.075175 8.141879 1.854454 -4.303643 -14.134636 -11.423992 -1.291028 37.597318 -0.971870 -0.505320 -35.433000 9.187563 -35.670554 -1.775398 20.210561 -27.302018 -18.343718 59.699959 -43.890339 -24.077145 -3.625425 2.752683 0.836400 -0.374020 0.493140 0.061160 -12.470908 43.638380 4.384642 -0.099699 27.330071 -10.462475 -17.011236 26.802310 -3.192464 2.158187 -1.253871 0.000520 0.257690 -0.202490 -0.269040 
